<svg xmlns="http://www.w3.org/2000/svg" viewBox="0 0 512 512">
  <defs>
    <linearGradient id="bg" x1="0" y1="0" x2="1" y2="1">
      <stop offset="0%" stop-color="#002060"/>
      <stop offset="100%" stop-color="#003087"/>
    </linearGradient>
  </defs>
  <!-- Full bleed background (no radius — maskable icon) -->
  <rect width="512" height="512" fill="url(#bg)"/>
  <!-- Content in safe zone: 80% = inner 410x410 centered at 256,256 (margins: 51px) -->
  <g transform="translate(157,157) scale(8.25)" stroke="white" stroke-width="2" stroke-linecap="round" stroke-linejoin="round" fill="none">
    <path d="M14.7 6.3a1 1 0 0 0 0 1.4l1.6 1.6a1 1 0 0 0 1.4 0l3.77-3.77a6 6 0 0 1-7.94 7.94l-6.91 6.91a2.12 2.12 0 0 1-3-3l6.91-6.91a6 6 0 0 1 7.94-7.94l-3.76 3.76z"/>
  </g>
  <path d="M100 430 Q192 408 256 420 Q320 432 412 408" stroke="#00AEEF" stroke-width="8" fill="none" stroke-linecap="round" opacity="0.9"/>
</svg>
